<?xml version="1.0" encoding="UTF-8"?>
<svg id="Layer_2" data-name="Layer 2" xmlns="http://www.w3.org/2000/svg" viewBox="0 0 698.66 357.32">
  <defs>
    <style>
      .cls-1 {
        fill: #143055;
      }

      .cls-2 {
        fill: #dcc699;
      }
    </style>
  </defs>
  <g id="Layer_1-2" data-name="Layer 1">
    <g>
      <path class="cls-1" d="M12.51,189.1h23.73c13.62,0,22.8,.59,27.55,1.78,6.8,1.67,12.37,5.12,16.7,10.32,4.32,5.22,6.47,11.77,6.47,19.66s-2.11,14.49-6.33,19.65c-4.21,5.16-10.01,8.63-17.42,10.42-5.4,1.29-15.49,1.94-30.3,1.94h-8.52v55.43H12.51v-119.2h0Zm11.9,11.67v40.44l20.17,.24c8.17,0,14.13-.74,17.91-2.23,3.78-1.48,6.76-3.88,8.92-7.2,2.16-3.32,3.24-7.03,3.24-11.12s-1.08-7.64-3.24-10.95c-2.16-3.32-5.02-5.67-8.55-7.07-3.54-1.41-9.34-2.11-17.39-2.11H24.41Z"/>
      <path class="cls-1" d="M140.68,189.1l55.59,119.2h-12.87l-18.74-39.22h-51.35l-18.57,39.22h-13.3l56.31-119.2h2.92Zm-1.5,25.32l-20.43,43.14h40.76l-20.33-43.14h0Z"/>
      <polygon class="cls-1" points="211.33 308.3 211.33 189.1 213.92 189.1 293.26 280.47 293.26 189.1 305.01 189.1 305.01 308.3 302.33 308.3 223.65 218.04 223.65 308.3 211.33 308.3 211.33 308.3"/>
      <polygon class="cls-1" points="332.44 189.1 400.76 189.1 400.76 200.77 344.35 200.77 344.35 238.12 400.27 238.12 400.27 249.8 344.35 249.8 344.35 296.64 400.27 296.64 400.27 308.3 332.44 308.3 332.44 189.1 332.44 189.1"/>
      <path class="cls-1" d="M408.27,286.1l10.12-6.07c7.14,13.12,15.38,19.68,24.72,19.68,4,0,7.75-.93,11.27-2.79,3.51-1.86,6.19-4.36,8.02-7.49,1.83-3.13,2.76-6.46,2.76-9.97,0-4-1.35-7.92-4.05-11.75-3.73-5.29-10.54-11.67-20.42-19.13-9.94-7.52-16.13-12.94-18.56-16.28-4.2-5.61-6.31-11.7-6.31-18.24,0-5.18,1.23-9.91,3.73-14.18,2.48-4.26,5.98-7.62,10.48-10.09,4.52-2.46,9.41-3.68,14.71-3.68,5.62,0,10.89,1.38,15.76,4.16,4.9,2.79,10.07,7.9,15.53,15.36l-9.72,7.37c-4.5-5.95-8.31-9.87-11.47-11.76-3.17-1.88-6.61-2.83-10.34-2.83-4.81,0-8.74,1.45-11.79,4.37-3.04,2.92-4.57,6.51-4.57,10.78,0,2.59,.53,5.1,1.61,7.54,1.08,2.42,3.04,5.08,5.92,7.94,1.56,1.51,6.7,5.48,15.4,11.91,10.3,7.62,17.39,14.39,21.22,20.33,3.85,5.95,5.76,11.91,5.76,17.91,0,8.65-3.28,16.16-9.85,22.54-6.56,6.37-14.54,9.56-23.95,9.56-7.24,0-13.81-1.93-19.69-5.8-5.88-3.87-11.31-10.33-16.28-19.41"/>
      <path class="cls-1" d="M545.81,189.1l55.59,119.2h-12.87l-18.75-39.22h-51.34l-18.57,39.22h-13.3l56.33-119.2h2.91Zm-1.52,25.32l-20.41,43.14h40.76l-20.35-43.14h0Z"/>
      <path class="cls-1" d="M616.66,189.1h23.75c13.23,0,22.2,.54,26.91,1.62,7.07,1.62,12.83,5.1,17.26,10.42,4.42,5.33,6.64,11.89,6.64,19.67,0,6.49-1.53,12.2-4.58,17.12-3.04,4.93-7.42,8.65-13.09,11.16-5.66,2.51-13.51,3.79-23.5,3.85l42.88,55.35h-14.75l-42.86-55.35h-6.73v55.35h-11.93v-119.2h0Zm11.93,11.67v40.51l20.52,.17c7.96,0,13.84-.76,17.66-2.27,3.81-1.51,6.79-3.94,8.92-7.25,2.15-3.31,3.21-7.04,3.21-11.15s-1.08-7.63-3.24-10.89c-2.16-3.27-5.01-5.6-8.52-7.01-3.52-1.41-9.36-2.11-17.53-2.11h-21.01Z"/>
      <path class="cls-1" d="M260.96,353.35c-.87,1.18-1.99,2.14-3.37,2.87-1.39,.72-3.05,1.1-4.99,1.1-1.68,0-3.21-.29-4.63-.85-1.42-.57-2.64-1.37-3.66-2.39-1.02-1.02-1.82-2.24-2.4-3.65-.58-1.41-.87-2.98-.87-4.67s.31-3.28,.87-4.7c.6-1.4,1.42-2.62,2.46-3.62,1.04-.99,2.28-1.78,3.7-2.34,1.44-.56,2.98-.84,4.66-.84,.73,0,1.48,.07,2.25,.22,.78,.14,1.5,.36,2.2,.64,.71,.29,1.35,.65,1.92,1.08,.59,.42,1.08,.91,1.48,1.46l-2.42,1.86c-.53-.75-1.29-1.36-2.27-1.85-.97-.49-2.03-.72-3.16-.72-1.29,0-2.44,.24-3.46,.7-1.02,.47-1.89,1.11-2.62,1.91-.73,.79-1.29,1.73-1.67,2.8-.39,1.06-.59,2.2-.59,3.39s.19,2.39,.58,3.48c.38,1.06,.92,1.99,1.64,2.79,.71,.79,1.58,1.42,2.6,1.87,1.02,.45,2.17,.68,3.42,.68s2.37-.24,3.39-.74c1-.49,1.84-1.21,2.5-2.17l2.44,1.68h0Z"/>
      <polygon class="cls-1" points="271.5 356.76 268.43 356.76 268.43 334.83 271.5 334.83 271.5 356.76 271.5 356.76"/>
      <path class="cls-1" d="M284.22,356.76h-3.06v-21.93h7.03c1.05,0,2.05,.12,3.01,.34,.94,.21,1.78,.56,2.49,1.03,.72,.47,1.27,1.09,1.69,1.87,.42,.78,.62,1.71,.62,2.82,0,1.63-.5,2.93-1.5,3.91-.98,.99-2.27,1.62-3.83,1.89l6.13,10.06h-3.73l-5.56-9.75h-3.29v9.75h0Zm0-12.33h3.53c.73,0,1.41-.05,2.03-.18,.61-.12,1.15-.31,1.62-.6,.45-.28,.83-.64,1.1-1.08,.27-.44,.4-1,.4-1.67s-.13-1.21-.4-1.64c-.26-.45-.62-.81-1.07-1.07-.43-.26-.96-.46-1.56-.58-.59-.11-1.24-.17-1.89-.17h-3.75v6.99h0Z"/>
      <path class="cls-1" d="M323.3,353.35c-.86,1.18-1.99,2.14-3.37,2.87-1.38,.72-3.05,1.1-5,1.1-1.66,0-3.22-.29-4.63-.85-1.4-.57-2.63-1.37-3.65-2.39-1.02-1.02-1.82-2.24-2.4-3.65-.58-1.41-.86-2.98-.86-4.67s.29-3.28,.88-4.7c.6-1.4,1.41-2.62,2.45-3.62,1.04-.99,2.28-1.78,3.69-2.34,1.43-.56,2.98-.84,4.65-.84,.74,0,1.49,.07,2.26,.22,.76,.14,1.5,.36,2.2,.64,.71,.29,1.34,.65,1.93,1.08,.57,.42,1.07,.91,1.48,1.46l-2.42,1.86c-.52-.75-1.29-1.36-2.26-1.85-.98-.49-2.04-.72-3.18-.72-1.28,0-2.43,.24-3.45,.7-1.02,.47-1.89,1.11-2.61,1.91-.73,.79-1.29,1.73-1.67,2.8-.4,1.06-.59,2.2-.59,3.39s.18,2.39,.56,3.48c.39,1.06,.93,1.99,1.65,2.79,.7,.79,1.58,1.42,2.6,1.87,1.02,.45,2.17,.68,3.42,.68s2.36-.24,3.38-.74c1.01-.49,1.84-1.21,2.5-2.17l2.44,1.68h0Z"/>
      <path class="cls-1" d="M331.29,356.76h-3.4l9.5-21.93h2.79l9.42,21.93h-3.46l-2.24-5.39h-10.41l-2.2,5.39h0Zm3.28-8.08h8.22l-4.09-10.28-4.13,10.28h0Z"/>
      <polygon class="cls-1" points="362.63 350.45 355.45 350.45 355.45 348 362.63 348 362.63 350.45 362.63 350.45"/>
      <polygon class="cls-1" points="380.04 356.76 377.07 356.76 377.07 338.48 372.91 341.95 371.15 339.88 377.37 334.83 380.04 334.83 380.04 356.76 380.04 356.76"/>
      <path class="cls-1" d="M402.37,347.91l-.02-.04c-.31,.18-.73,.33-1.28,.43-.24,.04-.49,.07-.75,.11-.26,.03-.5,.04-.72,.04-.97,0-1.86-.18-2.69-.51-.84-.34-1.55-.82-2.17-1.43-.62-.61-1.1-1.34-1.45-2.18-.36-.86-.53-1.77-.53-2.76,0-1.1,.19-2.1,.57-2.98,.4-.91,.92-1.67,1.6-2.32,.68-.64,1.49-1.13,2.41-1.49,.93-.35,1.93-.52,3-.52s2.07,.18,3.01,.54c.92,.36,1.72,.87,2.4,1.5,.66,.64,1.19,1.41,1.56,2.3,.39,.88,.57,1.84,.57,2.87,0,1.21-.19,2.28-.59,3.26-.39,.98-.89,1.96-1.51,2.97l-5.72,9.04h-3.56l5.87-8.85h0Zm2.53-6.44c0-.64-.11-1.26-.33-1.82-.22-.56-.53-1.06-.92-1.49-.41-.42-.89-.74-1.44-.99-.56-.24-1.18-.37-1.87-.37s-1.29,.12-1.85,.36c-.58,.24-1.04,.56-1.45,.98-.39,.41-.71,.91-.92,1.49-.22,.58-.34,1.2-.34,1.88s.12,1.27,.34,1.83c.21,.56,.52,1.04,.91,1.45,.4,.41,.86,.74,1.41,.97,.56,.22,1.19,.34,1.86,.34s1.3-.12,1.88-.34c.56-.22,1.04-.56,1.46-.97,.39-.41,.7-.89,.92-1.45,.21-.56,.33-1.18,.33-1.85"/>
      <path class="cls-1" d="M427.81,349.26h3.17v2.58h-3.17v4.92h-2.89v-4.92h-10.09v-2.73l9.32-14.28h3.67v14.43h0Zm-2.89-10.99h-.06l-6.93,10.99h7v-10.99h0Z"/>
      <path class="cls-1" d="M449.03,345.22c.58,.14,1.12,.39,1.62,.72,.51,.34,.96,.74,1.33,1.22,.37,.48,.66,1.03,.88,1.64,.22,.63,.33,1.28,.33,1.98,0,1.04-.19,1.95-.59,2.75-.38,.81-.92,1.5-1.6,2.05-.66,.56-1.44,.99-2.32,1.29-.89,.3-1.83,.45-2.83,.45s-1.92-.15-2.83-.45c-.89-.3-1.68-.73-2.34-1.29-.67-.55-1.21-1.24-1.59-2.05-.41-.8-.59-1.71-.59-2.75,0-.72,.11-1.39,.33-2.01,.21-.62,.52-1.16,.89-1.64,.38-.46,.83-.86,1.34-1.19,.5-.31,1.04-.55,1.59-.72v-.07c-.99-.34-1.8-.95-2.43-1.79-.62-.85-.94-1.87-.94-3.1,0-.9,.18-1.72,.53-2.46,.35-.74,.82-1.36,1.43-1.89,.59-.52,1.28-.93,2.08-1.21,.79-.29,1.65-.42,2.55-.42s1.75,.13,2.55,.42c.81,.28,1.5,.67,2.08,1.17,.6,.51,1.06,1.12,1.42,1.86,.35,.72,.53,1.56,.53,2.46,0,1.2-.32,2.24-.94,3.13-.62,.87-1.44,1.49-2.44,1.83v.07h0Zm-7.49,5.41c0,.61,.1,1.19,.31,1.71,.21,.51,.51,.95,.89,1.31,.38,.36,.84,.64,1.37,.86,.52,.19,1.1,.3,1.73,.3s1.2-.11,1.73-.3c.51-.21,.97-.5,1.34-.86,.37-.36,.66-.8,.88-1.31,.22-.51,.33-1.09,.33-1.71s-.11-1.14-.33-1.66c-.22-.51-.51-.95-.88-1.32-.38-.37-.83-.66-1.34-.86-.54-.21-1.11-.32-1.73-.32s-1.19,.11-1.71,.32c-.53,.19-.98,.49-1.36,.86-.39,.37-.68,.81-.9,1.32-.21,.51-.32,1.06-.32,1.66m.69-10.3c0,.51,.08,.97,.26,1.41,.17,.44,.42,.81,.74,1.13,.33,.33,.71,.58,1.16,.77,.44,.19,.92,.27,1.44,.27s.97-.09,1.4-.27c.44-.19,.81-.45,1.15-.77,.34-.32,.59-.69,.78-1.13,.19-.44,.29-.9,.29-1.41s-.1-.99-.3-1.44c-.19-.45-.45-.83-.77-1.15-.33-.32-.71-.57-1.14-.75-.43-.17-.89-.26-1.4-.26s-1,.09-1.44,.26c-.46,.18-.84,.43-1.16,.75-.31,.32-.57,.7-.74,1.15-.17,.45-.26,.93-.26,1.44"/>
      <polygon class="cls-2" points="467.83 350.71 475.79 345.88 467.83 341.06 459.9 345.88 467.83 350.71 467.83 350.71"/>
      <polygon class="cls-2" points="225.38 350.71 233.34 345.88 225.38 341.06 217.43 345.88 225.38 350.71 225.38 350.71"/>
      <polygon class="cls-2" points="698.66 347.24 484.66 347.24 484.66 344.54 698.66 344.54 698.66 347.24 698.66 347.24"/>
      <polygon class="cls-2" points="207.23 347.24 0 347.24 0 344.54 207.23 344.54 207.23 347.24 207.23 347.24"/>
      <path class="cls-1" d="M293.1,12.22c8.08-3.7,14.3-6.31,18.68-7.84,8.47-2.93,16.3-4.38,23.44-4.38,13.31,0,24.59,5.07,33.78,15.2,9.01,9.94,13.52,21.75,13.52,35.47,0,18.62-5.46,35.16-16.41,49.69-11.32,15.09-24.8,22.64-40.43,22.64-5.5,0-10.17-1.44-14-4.38-4.17-3.17-6.26-7.22-6.26-12.12,0-3.1,.94-5.87,2.83-8.29,1.89-2.41,4.26-3.63,7.11-3.63,1.52,0,2.93,.17,4.22,.55,1.29,.37,2.19,.92,2.73,1.64,.53,.67,.4,1.13-.39,1.38-2.18,1.14-3.55,2.09-4.08,2.89-.86,1.38-1.28,3.35-1.28,5.86,0,3.39,1.49,6.03,4.46,7.95,2.52,1.58,5.53,2.38,9.05,2.38,10.13,0,18.75-6.17,25.84-18.48,6.89-11.98,10.33-26.09,10.33-42.33,0-13.31-2.98-24.8-8.94-34.47-6.56-10.67-15.17-15.99-25.84-15.99-8.33,0-15.64,2.48-21.85,7.45-6.63,5.24-9.94,11.77-9.94,19.57v99.56c0,12.19-2.36,22.22-7.06,30.1-4.7,7.89-10.3,11.84-16.78,11.84-3.13,0-5.72-.68-7.81-1.99-2.08-1.32-3.13-3.25-3.13-5.76-.2-1.6-.04-2.97,.48-4.13,.54-1.16,1.31-2.1,2.3-2.84,.46-.32,.85-.48,1.19-.48,.59,0,.78,.36,.59,1.09-.26,1.13-.33,2.11-.2,3,.27,1.36,.77,2.43,1.49,3.16,.99,.98,2.38,1.48,4.18,1.48,.53,0,.97-.03,1.29-.09,3.45-.47,5.9-2.73,7.35-6.82,1.45-4.06,2.19-9.68,2.19-16.83V21.85"/>
      <path class="cls-2" d="M412.6,21.85v122.41c0,7.15,.74,12.77,2.19,16.83,1.44,4.08,3.9,6.35,7.34,6.82,.35,.05,.77,.08,1.31,.08,1.79,0,3.17-.5,4.16-1.48,.73-.73,1.24-1.79,1.5-3.16,.14-.87,.07-1.87-.2-2.99-.19-.74,0-1.09,.6-1.09,.33,0,.73,.16,1.18,.48,.99,.74,1.76,1.67,2.3,2.84,.53,1.16,.68,2.53,.49,4.13,0,2.51-1.04,4.44-3.13,5.76-2.09,1.32-4.69,1.99-7.8,1.99-6.5,0-12.09-3.95-16.78-11.84-4.71-7.87-7.07-17.9-7.07-30.1V32.98c0-7.79-3.29-14.33-9.94-19.57-6.21-4.97-13.5-7.45-21.86-7.45-10.63,0-19.26,5.33-25.83,15.99-5.96,9.68-8.93,21.17-8.93,34.48,0,16.25,3.44,30.35,10.33,42.33,7.08,12.32,15.71,18.48,25.82,18.48,3.51,0,6.54-.8,9.05-2.38,2.97-1.92,4.46-4.56,4.46-7.95,0-2.51-.43-4.48-1.28-5.86-.54-.8-1.89-1.75-4.08-2.89-.79-.25-.92-.71-.39-1.38,.53-.72,1.44-1.27,2.74-1.64,1.28-.37,2.7-.55,4.22-.55,2.83,0,5.21,1.21,7.1,3.63,1.88,2.43,2.84,5.19,2.84,8.29,0,4.9-2.08,8.95-6.27,12.12-3.83,2.93-8.5,4.38-13.99,4.38-15.65,0-29.11-7.55-40.45-22.64-10.93-14.52-16.38-31.06-16.38-49.69,0-13.71,4.5-25.53,13.51-35.47,9.21-10.13,20.47-15.2,33.77-15.2,7.16,0,14.98,1.45,23.46,4.38,4.37,1.53,10.61,4.13,18.67,7.83"/>
      <path class="cls-1" d="M349.17,108.08c-1.66,1.78-3.41,3.36-5.19,4.61,1.66,1.34,3.43,2.56,5.19,3.64,1.73-1.08,3.53-2.3,5.2-3.64-1.78-1.26-3.56-2.83-5.2-4.61"/>
      <path class="cls-1" d="M285.75,21.85c-4.3-1.71-10.43-2.96-13.07,1.52-.93,1.58-1.12,4.1-.04,6.08,.59,1.09,1.04,1.36,1.88,1.77,.6,.3,1.7,.81,1.83,1.59,.15,.9-1.08,1.61-1.73,1.95-3.99,1.94-9.29-1.34-11.55-4.57-1.66-2.37-1.88-5.4-1.2-8.13,1.45-5.92,6.39-9.44,12.13-10.55,6.58-1.24,13.14-1.04,19.58,.85"/>
      <path class="cls-2" d="M404.51,12.36c6.45-1.89,13-2.09,19.59-.85,5.75,1.11,10.68,4.63,12.12,10.55,.69,2.74,.46,5.76-1.19,8.13-2.26,3.23-7.57,6.51-11.54,4.57-.66-.33-1.88-1.05-1.73-1.95,.14-.78,1.23-1.29,1.83-1.59,.82-.41,1.29-.68,1.87-1.78,1.08-1.98,.89-4.5-.04-6.07-2.64-4.48-8.77-3.23-13.05-1.52"/>
    </g>
  </g>
</svg>